<svg xmlns="http://www.w3.org/2000/svg" xmlns:xlink="http://www.w3.org/1999/xlink" width="462" height="462" version="1.1" viewBox="0 0 462 462"><title>Rectangle Copy 6</title><g id="Website-Final" fill="none" stroke="none" fillRule="evenodd" opacity=".4" strokeWidth="1"><g id="Rectangle-Copy" stroke="#979797" transform="translate(-518.000000, 0.000000)"><path id="Rectangle-Copy-6" d="M632.789545,-174.012027 C721.559753,-193.842181 832.115305,-202.09956 964.455522,-198.789781 C1052.45593,-196.588925 1131.55266,-159.503249 1188.64929,-100.960804 C1245.74591,-42.4183594 1280.84244,37.5808534 1280.84244,125.608782 L1280.84244,125.608782 L1280.84244,143.5 C1280.84244,231.175204 1245.30504,310.550204 1187.84884,368.006403 C1130.39264,425.462602 1051.01764,461 963.342438,461 L963.342438,461 L865.7332,461 C792.209664,461.000001 723.280971,436.280041 668.001822,393.798568 C612.722674,351.317096 571.093071,291.07411 552.167714,220.02806 C520.635698,101.656439 511.59716,9.60868908 525.085494,-56.113861 C531.814401,-88.9007848 544.150827,-115.125919 562.110519,-134.780602 C580.05829,-154.42224 603.620052,-167.495928 632.789545,-174.012027 Z" transform="translate(899.935775, 130.750000) rotate(-180.000000) translate(-899.935775, -130.750000)"/></g></g></svg>