<?xml version="1.0" encoding="UTF-8"?>
<svg width="258px" height="308px" viewBox="0 0 258 308" version="1.1" xmlns="http://www.w3.org/2000/svg" xmlns:xlink="http://www.w3.org/1999/xlink">
    <title>Rectangle Copy 2</title>
    <g id="Website-Final" stroke="none" strokeWidth="1" fill="none" fillRule="evenodd" opacity="0.400000006">
        <g id="Rectangle-Copy" transform="translate(0.000000, -572.000000)" stroke="#979797">
            <path d="M-127.576222,586.603553 C-83.5902357,542.617567 -9.4546429,528.828785 94.7652336,545.100488 C141.622496,552.416247 182.323744,576.252744 211.310676,610.116533 C240.297608,643.980322 257.570225,687.871402 257.570225,735.296325 L257.570225,735.296325 L257.570225,849.73537 C257.570225,894.448198 239.44677,934.928067 210.145109,964.229728 C180.843447,993.53139 140.363578,1011.65484 95.6507497,1011.65484 C85.4199542,1011.65484 75.2121848,1010.68521 65.1643653,1008.75894 L65.1643653,1008.75894 L-10.3979773,994.272897 C-48.6346217,986.942556 -82.7803654,968.455581 -109.33105,942.268184 C-135.881735,916.080787 -154.837361,882.192968 -162.693771,844.060938 C-188.001135,721.228596 -176.354025,635.381356 -127.576222,586.603553 Z" id="Rectangle-Copy-2" transform="translate(40.945225, 792.125000) rotate(-180.000000) translate(-40.945225, -792.125000) "></path>
        </g>
    </g>
</svg>