<?xml version="1.0" encoding="UTF-8"?>
<svg width="16px" height="16px" viewBox="0 0 16 16" version="1.1" xmlns="http://www.w3.org/2000/svg" xmlns:xlink="http://www.w3.org/1999/xlink">
    <title>interface</title>
    <g id="Website-Final" stroke="none" strokeWidth="1" fill="none" fillRule="evenodd" opacity="0.800000012">
        <g id="Product" transform="translate(-320.000000, -2353.000000)" fill="#000000" fillRule="nonzero">
            <g id="Group-15" transform="translate(0.000000, 1566.000000)">
                <g id="Group-32" transform="translate(99.000000, 0.000000)">
                    <g id="Group-31" transform="translate(0.000000, 474.000000)">
                        <g id="Group-23" transform="translate(221.000000, 258.000000)">
                            <g id="interface" transform="translate(0.000000, 55.000000)">
                                <path d="M15.1008212,2.35619764 C14.8710392,2.1240563 14.4982078,2.12365632 14.2684258,2.35521308 L7.2061681,9.45889208 L4.65812609,6.66787315 C4.43795393,6.42683997 4.0657022,6.41121005 3.82631036,6.63322886 C3.58710156,6.85527844 3.57178683,7.23088898 3.79195899,7.47213753 L6.75502415,10.717532 C6.8635391,10.8364794 7.01540511,10.9055526 7.17553864,10.9089063 C7.17984019,10.9090909 7.1839892,10.9090909 7.1881077,10.9090909 C7.34372613,10.9090909 7.49342611,10.8467558 7.60371049,10.735931 L15.0996619,3.1958755 C15.3300236,2.96434951 15.3304202,2.58833899 15.1008212,2.35619764 Z" id="Path"></path>
                                <path d="M15.3969687,7.39696875 C15.0639062,7.39696875 14.7939687,7.66690625 14.7939687,8 C14.7939687,11.7463437 11.7463437,14.7939688 8,14.7939688 C4.253875,14.7939688 1.20603125,11.7463438 1.20603125,8 C1.20603125,4.253875 4.253875,1.20603125 8,1.20603125 C8.3330625,1.20603125 8.60303125,0.93609375 8.60303125,0.60303125 C8.60303125,0.2699375 8.3330625,0 8,0 C3.58875,0 0,3.58875 0,8 C0,12.4110625 3.58875,16 8,16 C12.4110625,16 16,12.4110625 16,8 C16,7.6669375 15.7300625,7.39696875 15.3969687,7.39696875 Z" id="Path"></path>
                            </g>
                        </g>
                    </g>
                </g>
            </g>
        </g>
    </g>
</svg>